<svg width="175" height="37" viewBox="0 0 175 37" fill="none" xmlns="http://www.w3.org/2000/svg">
<path d="M13.016 35.616V36H0.296V35.616H3.368V2.064H0.296V1.68H13.016V2.064H9.944V18.864H20.072V2.064H17V1.68H29.72V2.064H26.648V35.616H29.72V36H17V35.616H20.072V19.248H9.944V35.616H13.016ZM54.4051 24.288C54.4051 32.416 50.6771 36.48 43.2211 36.48C35.7651 36.48 32.0371 32.416 32.0371 24.288C32.0371 16.256 35.7651 12.24 43.2211 12.24C50.6771 12.24 54.4051 16.256 54.4051 24.288ZM47.6371 24.288C47.6371 21.408 47.4931 19.12 47.2051 17.424C46.9491 15.728 46.5011 14.512 45.8611 13.776C45.2211 13.008 44.3411 12.624 43.2211 12.624C42.1331 12.624 41.2691 13.008 40.6291 13.776C39.9891 14.512 39.5251 15.728 39.2371 17.424C38.9491 19.12 38.8051 21.408 38.8051 24.288C38.8051 27.2 38.9491 29.52 39.2371 31.248C39.5251 32.944 39.9891 34.176 40.6291 34.944C41.2691 35.712 42.1331 36.096 43.2211 36.096C44.3411 36.096 45.2211 35.712 45.8611 34.944C46.5011 34.176 46.9491 32.944 47.2051 31.248C47.4931 29.52 47.6371 27.2 47.6371 24.288ZM68.192 35.616V36H56.576V35.616H59.216V0.383998H56.576V-2.86102e-06H65.552V35.616H68.192ZM75.518 7.68C74.654 7.68 73.902 7.36 73.262 6.72C72.622 6.08 72.302 5.312 72.302 4.416C72.302 3.552 72.622 2.8 73.262 2.16C73.902 1.52 74.654 1.2 75.518 1.2C76.446 1.2 77.214 1.52 77.822 2.16C78.462 2.8 78.782 3.552 78.782 4.416C78.782 5.312 78.462 6.08 77.822 6.72C77.214 7.36 76.446 7.68 75.518 7.68ZM81.422 35.616V36H69.806V35.616H72.446V13.104H69.806V12.72H78.782V35.616H81.422ZM96.5484 0.383998V-2.86102e-06H105.524V34.128C105.524 34.608 105.604 34.976 105.764 35.232C105.924 35.488 106.244 35.616 106.724 35.616H108.212V36H103.028C101.78 36 100.868 35.76 100.292 35.28C99.7164 34.8 99.3644 34 99.2364 32.88C98.5644 34.064 97.7004 34.96 96.6444 35.568C95.6204 36.176 94.4204 36.48 93.0444 36.48C89.9724 36.48 87.7164 35.616 86.2764 33.888C84.8364 32.16 84.1164 29.328 84.1164 25.392C84.1164 20.752 85.0124 17.408 86.8044 15.36C88.5964 13.28 91.0284 12.24 94.1004 12.24C95.3164 12.24 96.3244 12.48 97.1244 12.96C97.9564 13.44 98.6444 14.112 99.1884 14.976V0.383998H96.5484ZM90.7404 25.392C90.7404 28.016 90.8684 30.08 91.1244 31.584C91.3804 33.056 91.7804 34.112 92.3244 34.752C92.9004 35.36 93.6204 35.664 94.4844 35.664C95.3804 35.664 96.2284 35.376 97.0284 34.8C97.8604 34.192 98.5804 33.312 99.1884 32.16V15.84C98.7084 14.816 98.1164 14.064 97.4124 13.584C96.7084 13.104 95.8764 12.864 94.9164 12.864C93.9244 12.864 93.1244 13.28 92.5164 14.112C91.9084 14.944 91.4604 16.288 91.1724 18.144C90.8844 19.968 90.7404 22.384 90.7404 25.392ZM126.542 36C125.39 36 124.526 35.792 123.95 35.376C123.374 34.96 123.006 34.288 122.846 33.36C122.302 34.256 121.502 35.008 120.446 35.616C119.39 36.192 117.998 36.48 116.27 36.48C114.414 36.48 112.958 36.112 111.902 35.376C110.846 34.608 110.318 33.456 110.318 31.92C110.318 29.904 111.166 28.32 112.862 27.168C114.59 25.984 117.198 25.168 120.686 24.72L122.702 24.432V19.296C122.702 17.92 122.638 16.736 122.51 15.744C122.414 14.752 122.126 13.984 121.646 13.44C121.198 12.864 120.43 12.576 119.342 12.576C118.222 12.576 117.39 12.88 116.846 13.488C116.302 14.064 115.934 14.784 115.742 15.648C115.582 16.512 115.502 17.392 115.502 18.288C115.502 19.056 115.582 19.76 115.742 20.4C115.902 21.04 116.142 21.616 116.462 22.128L116.318 22.272C114.494 22.176 113.134 21.728 112.238 20.928C111.342 20.096 110.894 19.024 110.894 17.712C110.894 16.912 111.166 16.096 111.71 15.264C112.286 14.4 113.198 13.68 114.446 13.104C115.694 12.528 117.326 12.24 119.342 12.24C121.678 12.24 123.55 12.544 124.958 13.152C126.366 13.76 127.39 14.72 128.03 16.032C128.702 17.312 129.038 19.008 129.038 21.12V34.128C129.038 34.608 129.118 34.976 129.278 35.232C129.438 35.488 129.742 35.616 130.19 35.616H131.726V36H126.542ZM116.702 31.2C116.702 32.448 116.91 33.44 117.326 34.176C117.742 34.88 118.398 35.232 119.294 35.232C120.062 35.232 120.718 35.024 121.262 34.608C121.838 34.16 122.318 33.552 122.702 32.784V24.864L120.782 25.152C119.726 25.312 118.894 25.696 118.286 26.304C117.71 26.912 117.294 27.648 117.038 28.512C116.814 29.376 116.702 30.272 116.702 31.2ZM151.754 28.896H152.138V36H133.418V35.616L145.658 13.104H139.61C138.97 13.104 138.346 13.312 137.738 13.728C137.162 14.144 136.65 14.688 136.202 15.36C135.754 16 135.402 16.72 135.146 17.52C134.89 18.288 134.762 19.056 134.762 19.824H134.378V12.72H152.33V13.104L140.33 35.616H146.858C147.498 35.616 148.106 35.408 148.682 34.992C149.29 34.576 149.818 34.048 150.266 33.408C150.714 32.736 151.066 32 151.322 31.2C151.61 30.4 151.754 29.632 151.754 28.896ZM154.99 24.384C154.99 20.224 155.95 17.168 157.87 15.216C159.822 13.232 162.526 12.24 165.982 12.24C169.054 12.24 171.23 12.88 172.51 14.16C173.822 15.44 174.478 17.072 174.478 19.056C174.478 19.664 174.398 20.304 174.238 20.976C174.11 21.616 173.902 22.192 173.614 22.704H161.758C161.758 22.832 161.758 23.104 161.758 23.52C161.758 23.904 161.758 24.192 161.758 24.384C161.758 26.72 161.918 28.72 162.238 30.384C162.59 32.016 163.214 33.28 164.11 34.176C165.038 35.04 166.398 35.472 168.19 35.472C169.278 35.472 170.238 35.216 171.07 34.704C171.902 34.192 172.542 33.536 172.99 32.736C173.47 31.904 173.71 31.072 173.71 30.24H174.142C174.142 31.168 173.854 32.112 173.278 33.072C172.734 34.032 171.87 34.848 170.686 35.52C169.502 36.16 167.95 36.48 166.03 36.48C162.51 36.48 159.79 35.536 157.87 33.648C155.95 31.76 154.99 28.672 154.99 24.384ZM165.982 12.624C164.318 12.624 163.214 13.488 162.67 15.216C162.126 16.912 161.822 19.28 161.758 22.32H166.846C167.87 22.32 168.542 22 168.862 21.36C169.182 20.688 169.342 19.792 169.342 18.672C169.342 17.552 169.262 16.544 169.102 15.648C168.974 14.72 168.67 13.984 168.19 13.44C167.71 12.896 166.974 12.624 165.982 12.624Z" fill="#F25F29"/>
</svg>
